<svg width="44" height="44" xmlns="http://www.w3.org/2000/svg">
 <g>
  <title>Solstice Logo</title>
  <path id="svg_13" d="m331.70473,447.15203l-66.8651,21.98309l0,-43.94276l66.8651,21.95967zm-48.54971,-108.28835l-30.46232,59.25366l-33.61621,-31.09003l64.07853,-28.16363zm-117.16276,-44.84409l23.77454,61.80548l-47.56175,0l23.78721,-61.80548zm-117.17543,44.84409l64.10386,28.16363l-33.62888,31.09003l-30.47498,-59.25366zm-48.53705,108.28835c22.29259,-7.31989 44.58518,-14.63978 66.87777,-21.95967l0,43.94276l-66.87777,-21.98309zm48.53705,108.28835l30.47498,-59.23025l33.62888,31.07832l-64.10386,28.15193l0,0zm117.17543,44.87921l-23.78721,-61.81718l47.56175,0l-23.77454,61.81718zm117.16276,-44.87921l-64.0912,-28.14022l33.61621,-31.07832l30.47498,59.21855l0.00001,-0.00001zm-200.01266,-108.28835l0,0c0,-42.28057 37.09943,-76.56622 82.86257,-76.56622c45.75047,0 82.86257,34.28565 82.86257,76.56622c0,42.29227 -37.1121,76.57792 -82.86257,76.57792c-45.77581,0 -82.86257,-34.28565 -82.86257,-76.57792l0,0z" opacity="undefined" stroke-width="0" stroke="#000" fill="#e99a27"/>
  <path fill="#ffffff" stroke-width="0" d="m43.93033,21.8031l-8.84385,3.14607l0,-6.28879l8.84385,3.14272zm-6.42138,-15.49751l-4.02907,8.47999l-4.44622,-4.4494l8.47529,-4.03059zm-15.49642,-6.41779l3.14452,8.84519l-6.29071,0l3.14619,-8.84519zm-15.4981,6.41779l8.47864,4.03059l-4.44789,4.4494l-4.03074,-8.47999l-0.00001,0zm-6.41971,15.49751l8.84552,-3.14272l0,6.28879l-8.84552,-3.14607zm6.41971,15.49751l4.03074,-8.47664l4.44789,4.44772l-8.47864,4.02892l0,0l0.00001,0zm15.4981,6.42281l-3.14619,-8.84686l6.29071,0l-3.14452,8.84686zm15.49642,-6.42281l-8.47696,-4.02724l4.44622,-4.44772l4.03074,8.47496zm-26.45449,-15.49751l0,0c0,-6.05091 4.90692,-10.95765 10.95974,-10.95765c6.05114,0 10.95974,4.90673 10.95974,10.95765c0,6.05259 -4.9086,10.95932 -10.95974,10.95932c-6.05449,0 -10.95974,-4.90673 -10.95974,-10.95932l0,0z" id="svg_1"/>
 </g>
</svg>